<svg width="33" height="32" viewBox="0 0 33 32" fill="none" xmlns="http://www.w3.org/2000/svg">
<path d="M33 16C33 7.1625 25.6137 0 16.5 0C7.38633 0 0 7.1625 0 16C0 24.8375 7.38633 32 16.5 32C16.5967 32 16.6934 32 16.79 31.9937V19.5438H13.2451V15.5375H16.79V12.5875C16.79 9.16875 18.9428 7.30625 22.0881 7.30625C23.5963 7.30625 24.8918 7.4125 25.2656 7.4625V11.0375H23.1C21.392 11.0375 21.0568 11.825 21.0568 12.9812V15.5312H25.1496L24.6146 19.5375H21.0568V31.3813C27.9533 29.4625 33 23.3062 33 16Z" fill="#C4B192"/>
</svg>
