<svg width="18" height="18" viewBox="0 0 18 18" fill="none" xmlns="http://www.w3.org/2000/svg">
<path d="M9 8.25C9.59334 8.25 10.1734 8.07405 10.6667 7.74441C11.1601 7.41477 11.5446 6.94623 11.7716 6.39805C11.9987 5.84987 12.0581 5.24667 11.9424 4.66473C11.8266 4.08279 11.5409 3.54824 11.1213 3.12868C10.7018 2.70912 10.1672 2.4234 9.58527 2.30765C9.00333 2.19189 8.40013 2.2513 7.85195 2.47836C7.30377 2.70543 6.83524 3.08994 6.50559 3.58329C6.17595 4.07664 6 4.65666 6 5.25C6 6.04565 6.31607 6.80871 6.87868 7.37132C7.44129 7.93393 8.20435 8.25 9 8.25ZM9 3.75C9.29667 3.75 9.58668 3.83797 9.83336 4.0028C10.08 4.16762 10.2723 4.40189 10.3858 4.67598C10.4994 4.95006 10.5291 5.25167 10.4712 5.54264C10.4133 5.83361 10.2704 6.10088 10.0607 6.31066C9.85088 6.52044 9.58361 6.6633 9.29264 6.72118C9.00166 6.77906 8.70006 6.74935 8.42598 6.63582C8.15189 6.52229 7.91762 6.33003 7.7528 6.08336C7.58797 5.83668 7.5 5.54667 7.5 5.25C7.5 4.85218 7.65804 4.47065 7.93934 4.18934C8.22064 3.90804 8.60218 3.75 9 3.75Z" fill="#4B4A50"/>
<path d="M9 9.75C7.60761 9.75 6.27226 10.3031 5.28769 11.2877C4.30312 12.2723 3.75 13.6076 3.75 15C3.75 15.1989 3.82902 15.3897 3.96967 15.5303C4.11032 15.671 4.30109 15.75 4.5 15.75C4.69891 15.75 4.88968 15.671 5.03033 15.5303C5.17098 15.3897 5.25 15.1989 5.25 15C5.25 14.0054 5.64509 13.0516 6.34835 12.3483C7.05161 11.6451 8.00544 11.25 9 11.25C9.99456 11.25 10.9484 11.6451 11.6517 12.3483C12.3549 13.0516 12.75 14.0054 12.75 15C12.75 15.1989 12.829 15.3897 12.9697 15.5303C13.1103 15.671 13.3011 15.75 13.5 15.75C13.6989 15.75 13.8897 15.671 14.0303 15.5303C14.171 15.3897 14.25 15.1989 14.25 15C14.25 13.6076 13.6969 12.2723 12.7123 11.2877C11.7277 10.3031 10.3924 9.75 9 9.75Z" fill="#4B4A50"/>
</svg>
