<svg width="16" height="16" viewBox="0 0 16 16" fill="none" xmlns="http://www.w3.org/2000/svg">
<path d="M12.05 15.5C8.98793 15.496 6.05245 14.2778 3.88727 12.1127C1.72208 9.94748 0.503935 7.012 0.499966 3.94996C0.499966 3.03497 0.863447 2.15745 1.51045 1.51045C2.15745 0.863445 3.03497 0.499964 3.94997 0.499964C4.14372 0.498488 4.33715 0.516072 4.52747 0.552464C4.71145 0.579689 4.89232 0.624906 5.06747 0.687464C5.19065 0.730686 5.30042 0.805314 5.38592 0.903968C5.47142 1.00262 5.52969 1.12189 5.55497 1.24996L6.58247 5.74996C6.61016 5.87211 6.60683 5.99925 6.57276 6.11978C6.5387 6.2403 6.475 6.35038 6.38747 6.43996C6.28997 6.54496 6.28247 6.55246 5.35997 7.03246C6.09871 8.65311 7.39487 9.95458 9.01247 10.7C9.49997 9.76996 9.50747 9.76246 9.61247 9.66496C9.70205 9.57743 9.81213 9.51373 9.93265 9.47966C10.0532 9.4456 10.1803 9.44227 10.3025 9.46996L14.8025 10.4975C14.9264 10.5262 15.0411 10.5861 15.1355 10.6714C15.23 10.7566 15.3012 10.8646 15.3425 10.985C15.4058 11.163 15.4534 11.3462 15.485 11.5325C15.5152 11.721 15.5302 11.9116 15.53 12.1025C15.5161 13.0135 15.1424 13.8822 14.4904 14.5187C13.8385 15.1552 12.9611 15.508 12.05 15.5ZM3.94997 1.99996C3.4334 2.00194 2.93856 2.20802 2.57329 2.57329C2.20802 2.93856 2.00194 3.4334 1.99997 3.94996C2.00195 6.61478 3.06143 9.16988 4.94574 11.0542C6.83005 12.9385 9.38515 13.998 12.05 14C12.5665 13.998 13.0614 13.7919 13.4266 13.4266C13.7919 13.0614 13.998 12.5665 14 12.05V11.8025L10.52 11L10.3025 11.4125C9.96497 12.065 9.71747 12.5375 9.08747 12.2825C7.84463 11.8376 6.71649 11.1215 5.78502 10.1861C4.85355 9.25076 4.14213 8.11965 3.70247 6.87496C3.43247 6.28996 3.94247 6.01996 4.58747 5.68246L4.99997 5.47996L4.19747 1.99996H3.94997Z" fill="#4B4A50"/>
</svg>
