<svg width="21" height="20" viewBox="0 0 21 20" fill="none" xmlns="http://www.w3.org/2000/svg">
<path d="M15.4 20.0001C11.3173 19.9948 7.40331 18.3706 4.5164 15.4837C1.62949 12.5968 0.00529192 8.68282 0 4.60011C0 3.38012 0.484642 2.21009 1.34731 1.34742C2.20998 0.484756 3.38 0.000114295 4.6 0.000114295C4.85834 -0.00185351 5.11625 0.0215926 5.37 0.0701142C5.61531 0.106415 5.85647 0.166704 6.09 0.250114C6.25425 0.307744 6.40061 0.407248 6.51461 0.538787C6.62861 0.670325 6.7063 0.829343 6.74 1.00011L8.11 7.00011C8.14693 7.16298 8.14248 7.33249 8.09706 7.4932C8.05165 7.6539 7.96671 7.80067 7.85 7.92011C7.72 8.06011 7.71 8.07011 6.48 8.71011C7.46499 10.871 9.1932 12.6063 11.35 13.6001C12 12.3601 12.01 12.3501 12.15 12.2201C12.2694 12.1034 12.4162 12.0185 12.5769 11.9731C12.7376 11.9276 12.9071 11.9232 13.07 11.9601L19.07 13.3301C19.2353 13.3685 19.3881 13.4483 19.5141 13.562C19.64 13.6757 19.735 13.8196 19.79 13.9801C19.8744 14.2175 19.938 14.4617 19.98 14.7101C20.0202 14.9614 20.0403 15.2156 20.04 15.4701C20.0216 16.6849 19.5233 17.8431 18.654 18.6918C17.7847 19.5405 16.6149 20.0108 15.4 20.0001ZM4.6 2.00011C3.91125 2.00275 3.25146 2.27752 2.76443 2.76455C2.27741 3.25157 2.00263 3.91136 2 4.60011C2.00265 8.1532 3.41528 11.56 5.92769 14.0724C8.44011 16.5848 11.8469 17.9975 15.4 18.0001C16.0888 17.9975 16.7485 17.7227 17.2356 17.2357C17.7226 16.7487 17.9974 16.0889 18 15.4001V15.0701L13.36 14.0001L13.07 14.5501C12.62 15.4201 12.29 16.0501 11.45 15.7101C9.79288 15.117 8.2887 14.1621 7.04673 12.915C5.80477 11.6678 4.85622 10.1597 4.27 8.50011C3.91 7.72011 4.59 7.36011 5.45 6.91011L6 6.64011L4.93 2.00011H4.6Z" fill="#B1AFA9"/>
</svg>
