<svg width="33" height="32" viewBox="0 0 33 32" fill="none" xmlns="http://www.w3.org/2000/svg">
<path d="M14.4448 18.999L19.8121 16.0015L14.4448 13.0039V18.999Z" fill="#C4B192"/>
<path d="M16.5 0C7.38869 0 0 7.16479 0 16C0 24.8352 7.38869 32 16.5 32C25.6113 32 33 24.8352 33 16C33 7.16479 25.6113 0 16.5 0ZM26.81 16.0164C26.81 16.0164 26.81 19.2612 26.3855 20.8259C26.1476 21.6824 25.4512 22.3577 24.568 22.5881C22.9544 23 16.5 23 16.5 23C16.5 23 10.0625 23 8.43203 22.5718C7.54882 22.3413 6.85242 21.6658 6.6145 20.8093C6.18977 19.2612 6.18977 16 6.18977 16C6.18977 16 6.18977 12.7554 6.6145 11.1907C6.85217 10.3342 7.56569 9.64233 8.43203 9.41187C10.0456 9 16.5 9 16.5 9C16.5 9 22.9544 9 24.568 9.42822C25.4512 9.65869 26.1476 10.3342 26.3855 11.1907C26.8271 12.7554 26.81 16.0164 26.81 16.0164Z" fill="#C4B192"/>
</svg>
